<svg id="Layer_1" data-name="Layer 1" xmlns="http://www.w3.org/2000/svg" viewBox="0 0 9.21 9.21"><title>mission</title><path d="M252.67,467.25a.21.21,0,0,1,.3.3l-.53.53a.21.21,0,0,1-.3-.3l.53-.53Zm6.61-3.68a1.32,1.32,0,1,1-1.32-1.32,1.32,1.32,0,0,1,1.32,1.32Zm-1.32-.89a.89.89,0,1,0,.89.89.89.89,0,0,0-.89-.89Zm-4.87,3.81a6,6,0,0,1,.05-.81c0-.1,0-.19,0-.29l-.08,0a1.64,1.64,0,0,0-.48.31.35.35,0,0,1-.5,0,.33.33,0,0,1-.06-.09,2.34,2.34,0,0,1,.44-2.69h0a2.34,2.34,0,0,1,2.25-.6l.07-.07h0a5.92,5.92,0,0,1,2.66-1.54,6,6,0,0,1,3.09,0,.35.35,0,0,1,.25.25h0a6,6,0,0,1-1.54,5.74l0,0-.05,0a2.34,2.34,0,0,1-.6,2.26l0,0a2.34,2.34,0,0,1-2.68.42.35.35,0,0,1-.16-.47l.06-.08a1.62,1.62,0,0,0,.31-.48l0-.08-.29,0a6.13,6.13,0,0,1-.85.05.35.35,0,0,1-.25-.1h0l-1.58-1.58a.35.35,0,0,1-.1-.28Zm.75-.72a5.33,5.33,0,0,0,0,.6l1.37,1.37a5.19,5.19,0,0,0,.6,0,5.28,5.28,0,0,0,.73-.15h.11a.35.35,0,0,1,.34.37,2.36,2.36,0,0,1-.18.8,2.43,2.43,0,0,1-.14.27,1.65,1.65,0,0,0,.59,0,1.62,1.62,0,0,0,.88-.44v0a1.62,1.62,0,0,0,.44-.81,1.64,1.64,0,0,0-.07-.92h0a.35.35,0,0,1,.09-.39l.11-.11.09-.08v0a5.21,5.21,0,0,0,1.36-2.34,5.28,5.28,0,0,0,.05-2.52,5.27,5.27,0,0,0-2.52.05,5.21,5.21,0,0,0-2.34,1.36h0l-.1.1h0l-.1.1a.35.35,0,0,1-.4.1,1.66,1.66,0,0,0-.92-.07,1.62,1.62,0,0,0-.81.44h0a1.63,1.63,0,0,0-.44,1.48l.27-.13a2.32,2.32,0,0,1,.79-.18h.11a.35.35,0,0,1,.25.44,5.35,5.35,0,0,0-.15.73Zm.14,2.8a.21.21,0,1,1,.3.3l-.53.53a.21.21,0,0,1-.3-.3l.53-.53Zm-.65-.65a.21.21,0,0,1,.3,0,.21.21,0,0,1,0,.3l-1.2,1.2a.21.21,0,0,1-.3-.3l1.2-1.2Z" transform="translate(-251.82 -460.49)" style="fill:#dcdbdb"/></svg>