<svg id="Layer_1" data-name="Layer 1" xmlns="http://www.w3.org/2000/svg" viewBox="0 0 9.77 8.46"><title>etude</title><path d="M305.33,373.71l1.53,1.53a.35.35,0,1,1-.5.5l-1.53-1.53a3.85,3.85,0,0,1-2.47.89,3.87,3.87,0,0,1-2.94-1.36c-.37-.43.19-.84.61-.38a3.15,3.15,0,0,0,4.55.11h0a3.16,3.16,0,0,0,.69-3.42v0a3.13,3.13,0,0,0-.67-1l0,0a3.15,3.15,0,0,0-1-.69h0a3.15,3.15,0,0,0-4.09,1.64.35.35,0,0,1-.32.21h0a.35.35,0,0,1-.32-.5,3.9,3.9,0,0,1,3.53-2.3,3.84,3.84,0,0,1,1.47.29h0a3.86,3.86,0,0,1,1.25.84l0,0a3.83,3.83,0,0,1,.82,1.23v0a3.87,3.87,0,0,1-.61,3.93Zm-7.92-1.48a.21.21,0,1,1,0-.42H299l.93-1.57a.21.21,0,0,1,.29-.07.22.22,0,0,1,.07.07l.91,1.46.45-.48a.21.21,0,0,1,.3,0l0,.07.52,1.06.65-2.75a.21.21,0,0,1,.25-.16.22.22,0,0,1,.1.06l1,1a.21.21,0,0,1-.3.3l-.69-.7-.7,3h0a.21.21,0,0,1-.4,0l-.65-1.32-.43.45,0,0a.21.21,0,0,1-.29-.07l-.87-1.4-.81,1.37a.21.21,0,0,1-.19.11Z" transform="translate(-297.19 -367.38)" style="fill:#dcdbdb"/></svg>