<svg id="Layer_1" data-name="Layer 1" xmlns="http://www.w3.org/2000/svg" viewBox="0 0 7.33 9.21"><title>expertise</title><path d="M259.44,486.22a1,1,0,0,1,.08.25h0a.6.6,0,0,1-.06.37.79.79,0,0,1-.29.3,1.89,1.89,0,0,1-1.06.26c-.45,0-.46.22-.5.67,0,.23,0,.44,0,.66a.35.35,0,1,1-.71,0,6.08,6.08,0,0,1,0-.73c.09-.93.28-1.29,1.19-1.31a1.26,1.26,0,0,0,.7-.16h0l0,0a.58.58,0,0,1,0-.66l.11-.14h0l0,0,0-.09a.47.47,0,0,1,0-.22.64.64,0,0,1,.05-.16l.06-.11c0-.05,0,.06,0,0v0c-.17-.29-.29-.55.07-.75h0l.11,0-.07-.09,0-.06h0c-.08-.11-.17-.22-.24-.34v0a1,1,0,0,1-.16-.41,1.91,1.91,0,0,1,0-.26,2.23,2.23,0,0,1,0-.23c0-.07,0-.13,0-.2l0-.13a1.56,1.56,0,0,0,0-.22,2.49,2.49,0,0,0-.13-.42,1.82,1.82,0,0,0-.88-.94,3.44,3.44,0,0,0-1.66-.29,2.6,2.6,0,0,0-2.49,1.91,2.28,2.28,0,0,0,.1,1.66,6,6,0,0,0,1,1.51,1,1,0,0,1,.24.41,1.47,1.47,0,0,1,0,.55,9.06,9.06,0,0,1-.23,1.13c-.1.37-.21.72-.32,1.08a.35.35,0,0,1-.68-.21c.11-.35.22-.7.31-1.05a8.35,8.35,0,0,0,.22-1,1,1,0,0,0,0-.28.48.48,0,0,0-.09-.12,6.61,6.61,0,0,1-1.16-1.7,3,3,0,0,1-.12-2.15,3.31,3.31,0,0,1,3.14-2.4,4.14,4.14,0,0,1,2,.37,2.5,2.5,0,0,1,1.22,1.3,3.14,3.14,0,0,1,.17.54,1.44,1.44,0,0,1,0,.57l0,.1s0,.09,0,.13a1.38,1.38,0,0,0,0,.16,1.32,1.32,0,0,0,0,.17.72.72,0,0,0,.06.12h0c.06.1.13.2.21.29l.05.07a1.51,1.51,0,0,1,.34.63v.05a.46.46,0,0,1-.18.34h0a.63.63,0,0,1-.18.1.77.77,0,0,1,0,.25.8.8,0,0,1-.09.34.56.56,0,0,1,0,.27.79.79,0,0,1-.14.36l-.07.09h0l-.05.06Zm-3.81-4.44v-.36a.21.21,0,0,1,.21-.21h.7a.21.21,0,0,1,.21.21v.36a1.58,1.58,0,0,1,.46.27l.3-.18h0a.21.21,0,0,1,.29.08l.35.6a.21.21,0,0,1-.08.29l-.31.18a1.74,1.74,0,0,1,0,.54l.31.18h0a.21.21,0,0,1,.08.29l-.34.59v0a.21.21,0,0,1-.29.08l-.31-.18a1.57,1.57,0,0,1-.46.27v.36a.21.21,0,0,1-.21.21h-.7a.21.21,0,0,1-.21-.21v-.36a1.58,1.58,0,0,1-.46-.27l-.3.17h0a.21.21,0,0,1-.29-.08l-.35-.6a.21.21,0,0,1,.08-.29l.31-.18v-.05a1.61,1.61,0,0,1,0-.44v0l-.31-.18h0a.21.21,0,0,1-.08-.29l.34-.59v0a.21.21,0,0,1,.29-.08l.31.18a1.62,1.62,0,0,1,.46-.27Zm.26.36a1.19,1.19,0,0,0-.54.31.21.21,0,0,1-.26,0h0l-.26-.15-.14.24.26.15a.21.21,0,0,1,.1.24h0a1.18,1.18,0,0,0,0,.63.21.21,0,0,1-.1.24l-.26.15.14.24.26-.15a.21.21,0,0,1,.26,0h0a1.22,1.22,0,0,0,.55.32.21.21,0,0,1,.16.22v.29h.27v-.3a.21.21,0,0,1,.16-.21h0a1.18,1.18,0,0,0,.54-.31.21.21,0,0,1,.26,0h0l.26.15.14-.24-.26-.15a.21.21,0,0,1-.1-.24h0a1.17,1.17,0,0,0,0-.63.21.21,0,0,1,.1-.24l.26-.15-.14-.24-.26.15a.21.21,0,0,1-.26,0h0a1.2,1.2,0,0,0-.55-.32.21.21,0,0,1-.16-.22v-.29H256v.3a.22.22,0,0,1-.16.21Zm.29.43h0a.71.71,0,0,1,.71.7v0a.71.71,0,0,1-.7.71h0a.71.71,0,0,1-.71-.7h0a.71.71,0,0,1,.7-.71Zm-.19.51a.29.29,0,0,0-.09.21h0a.29.29,0,0,0,.29.28h0a.29.29,0,0,0,.28-.29h0a.28.28,0,0,0-.09-.2.29.29,0,0,0-.2-.09h0a.29.29,0,0,0-.2.08Z" transform="translate(-252.76 -479.9)" style="fill:#dcdbdb;fill-rule:evenodd"/></svg>