<svg id="Layer_1" data-name="Layer 1" xmlns="http://www.w3.org/2000/svg" viewBox="0 0 9.21 7.67"><title>logiciels</title><path d="M315.09,438.51h8.5a.35.35,0,0,1,.35.35h0V445a.36.36,0,0,1-.35.36h-3.9v.42h2a.21.21,0,0,1,0,.43H317a.21.21,0,0,1,0-.43h2v-.42h-3.9a.36.36,0,0,1-.35-.36h0v-6.11a.35.35,0,0,1,.35-.35Zm7.51,5.12a.35.35,0,1,1-.35.35.35.35,0,0,1,.35-.35Zm.64-4.41h-7.79v5.41h7.79v-5.41Z" transform="translate(-314.73 -438.51)" style="fill:#dcdbdb"/><path d="M319.38,441.09a.64.64,0,0,1,.45,1.09h0a.64.64,0,1,1-.45-1.09Zm.38-.78.18.06.17.08.15-.15a.14.14,0,0,1,.19,0l.35.35a.14.14,0,0,1,0,.19l-.15.15.08.17a1.41,1.41,0,0,1,.06.18H321a.14.14,0,0,1,.14.14h0V442a.14.14,0,0,1-.14.14h-.21a1.4,1.4,0,0,1-.06.18h0l-.08.16.15.15a.14.14,0,0,1,0,.19l-.35.35a.14.14,0,0,1-.19,0l-.15-.15-.17.08-.18.06v.21a.14.14,0,0,1-.14.14h-.49a.14.14,0,0,1-.13-.14h0v-.21l-.18-.06-.17-.08-.15.15a.14.14,0,0,1-.19,0l-.35-.35a.14.14,0,0,1,0-.19l.15-.15-.08-.17a1.45,1.45,0,0,1-.06-.18h-.21a.14.14,0,0,1-.14-.14h0v-.48a.14.14,0,0,1,.14-.14H318a1.49,1.49,0,0,1,.06-.18l.08-.17-.15-.15a.14.14,0,0,1,0-.19l.35-.35a.14.14,0,0,1,.19,0l.15.15.17-.08.18-.06v-.21a.14.14,0,0,1,.14-.14h.49a.14.14,0,0,1,.14.14h0v.21Zm.08.31-.23-.07a.14.14,0,0,1-.12-.13v-.19h-.22v.19h0a.14.14,0,0,1-.11.13l-.24.07-.22.12h0a.14.14,0,0,1-.17,0l-.13-.13-.15.15.13.13a.14.14,0,0,1,0,.18,1.2,1.2,0,0,0-.12.22,1.18,1.18,0,0,0-.07.23.14.14,0,0,1-.13.12h-.19v.22h.19a.14.14,0,0,1,.13.11,1.18,1.18,0,0,0,.07.24,1.21,1.21,0,0,0,.12.22h0a.14.14,0,0,1,0,.17l-.13.13.15.15.13-.13a.14.14,0,0,1,.18,0l.22.12.23.07a.14.14,0,0,1,.12.13v.19h.22V443h0a.14.14,0,0,1,.11-.13l.24-.07.22-.12h0a.14.14,0,0,1,.17,0l.13.13.15-.15-.13-.13a.14.14,0,0,1,0-.17,1.21,1.21,0,0,0,.12-.21h0a1.18,1.18,0,0,0,.07-.23.14.14,0,0,1,.13-.12h.19v-.22h-.19a.14.14,0,0,1-.13-.11,1.19,1.19,0,0,0-.07-.24,1.22,1.22,0,0,0-.12-.22h0a.14.14,0,0,1,0-.17l.13-.13-.15-.15-.13.13a.14.14,0,0,1-.17,0l-.22-.12Zm-.12.77a.47.47,0,1,0,0,.67h0a.47.47,0,0,0,0-.67Z" transform="translate(-314.73 -438.51)" style="fill:#dcdbdb"/></svg>